<svg width="44" height="44" viewBox="0 0 44 44" fill="none" xmlns="http://www.w3.org/2000/svg">
<g id="css3 ">
<path id="Vector" d="M37.5834 4.58331H6.41675L9.16675 35.75L22.0001 39.4166L34.8334 35.75L37.5834 4.58331Z" fill="#0277BD"/>
<path id="Vector_2" d="M22 7.33331V36.575L32.2667 33.6416L34.5583 7.33331H22Z" fill="#039BE5"/>
<path id="Vector_3" d="M30.3417 11.9167H22V15.5834H26.4917L26.2167 19.25H22V22.9167H26.0333L25.7583 27.0417L22 28.325V32.175L29.2417 29.7917L29.8833 19.25L30.3417 11.9167Z" fill="white"/>
<path id="Vector_4" d="M22 11.9167V15.5834H13.8417L13.5667 11.9167H22ZM17.7833 19.25L17.9667 22.9167H22V19.25H17.7833ZM18.15 24.75H14.4833L14.7583 29.7917L22 32.175V28.325L18.2417 27.0417L18.15 24.75Z" fill="#EEEEEE"/>
</g>
</svg>
