<svg width="29" height="29" viewBox="0 0 29 29" fill="none" xmlns="http://www.w3.org/2000/svg">
<g id="github">
<path id="Vector" d="M14.4999 2.8999C8.0938 2.8999 2.8999 8.0938 2.8999 14.4999C2.8999 19.9355 6.64284 24.4836 11.6888 25.7422C11.6347 25.5856 11.5999 25.4039 11.5999 25.1787V23.196C11.1291 23.196 10.3403 23.196 10.1422 23.196C9.34854 23.196 8.64287 22.8548 8.30067 22.2207C7.92077 21.516 7.85504 20.4381 6.9135 19.7789C6.63414 19.5594 6.8468 19.3091 7.1687 19.3429C7.7632 19.5111 8.2562 19.919 8.7202 20.5242C9.18227 21.1303 9.39977 21.2675 10.263 21.2675C10.6816 21.2675 11.308 21.2434 11.8976 21.1506C12.2147 20.3453 12.7628 19.6039 13.4327 19.254C9.5699 18.8567 7.72647 16.9349 7.72647 14.3259C7.72647 13.2026 8.20497 12.1161 9.01794 11.2007C8.75114 10.292 8.4157 8.4389 9.1204 7.73324C10.8585 7.73324 11.9092 8.86037 12.1615 9.16487C13.0277 8.8681 13.9789 8.6999 14.9784 8.6999C15.9799 8.6999 16.9349 8.8681 17.803 9.1668C18.0524 8.86423 19.1041 7.73324 20.8461 7.73324C21.5537 8.43987 21.2144 10.3007 20.9447 11.2074C21.7528 12.1209 22.2284 13.2046 22.2284 14.3259C22.2284 16.933 20.3879 18.8538 16.5309 19.253C17.5923 19.8069 18.3666 21.3632 18.3666 22.5358V25.1787C18.3666 25.2792 18.3443 25.3517 18.3327 25.4377C22.8529 23.8534 26.0999 19.5614 26.0999 14.4999C26.0999 8.0938 20.906 2.8999 14.4999 2.8999Z" fill="white"/>
</g>
</svg>
