<svg width="43" height="43" viewBox="0 0 43 43" fill="none" xmlns="http://www.w3.org/2000/svg">
<g id="html-5">
<path id="Vector" d="M36.7291 4.47919H6.27075L8.95825 34.9375L21.4999 38.5209L34.0416 34.9375L36.7291 4.47919Z" fill="#E65100"/>
<path id="Vector_2" d="M21.5 7.16669V35.7438L31.5333 32.8771L33.7729 7.16669H21.5Z" fill="#FF6D00"/>
<path id="Vector_3" d="M21.5 22.3958V18.8125H29.2042L28.5771 29.1146L21.5 31.4437V27.6812L25.1729 26.4271L25.4417 22.3958H21.5ZM29.4729 15.2291L29.7417 11.6458H21.5V15.2291H29.4729Z" fill="white"/>
<path id="Vector_4" d="M21.5 27.6812V31.4437L14.4229 29.1146L14.0646 24.1875H17.6479L17.8271 26.4271L21.5 27.6812ZM17.1104 15.2291H21.5V11.6458H13.3479L13.975 22.3958H21.5V18.8125H17.3792L17.1104 15.2291Z" fill="#EEEEEE"/>
</g>
</svg>
