<svg width="39" height="39" viewBox="0 0 39 39" fill="none" xmlns="http://www.w3.org/2000/svg">
<g id="icons8-react 1">
<path id="Vector" d="M19.5 28.1775C8.38305 28.1775 0 24.5407 0 19.5C0 14.4592 8.38305 10.725 19.5 10.725C30.617 10.725 39 14.4592 39 19.5C39 24.5407 30.617 28.1775 19.5 28.1775ZM19.5 13.5837C10.0142 13.5837 2.80313 16.768 2.80313 19.5614C2.80313 22.3548 10.0142 25.4163 19.5 25.4163C28.9858 25.4163 36.1969 22.2319 36.1969 19.4385C36.1969 16.6452 28.9858 13.5837 19.5 13.5837Z" fill="#4E7AB5"/>
<path id="Vector_2" d="M12.0919 37.05C11.1842 37.05 10.3554 36.8394 9.62708 36.4241C8.43758 35.7445 7.58445 34.5443 7.15838 32.9511C6.04103 28.7762 7.8438 21.7562 11.7536 15.0657C16.3409 7.22184 22.4318 1.95294 26.909 1.95294C27.8157 1.95294 28.6445 2.16354 29.3728 2.57889C30.5603 3.25652 31.4144 4.45577 31.8405 6.04794C32.9588 10.2229 31.1551 17.2439 27.2434 23.9343C22.6599 31.7792 16.5701 37.05 12.0919 37.05ZM26.909 4.87794C24.0932 4.87794 18.7102 8.96612 14.2788 16.5419C10.2589 23.4215 9.0801 29.1281 9.9849 32.1945C10.2296 33.0223 10.5748 33.5966 11.0779 33.8832C13.3799 35.1975 19.6667 31.1045 24.7191 22.4591C28.741 15.5786 30.0426 9.99377 29.015 6.80552C28.7507 5.98554 28.4261 5.40639 27.9239 5.12072C27.6383 4.95692 27.3058 4.87794 26.909 4.87794Z" fill="#4E7AB5"/>
<path id="Vector_3" d="M26.909 37.0471C22.4269 37.0461 16.337 31.7772 11.7536 23.9343C7.8438 17.2439 6.04103 10.2229 7.15838 6.04891C7.58445 4.45576 8.43758 3.25554 9.6261 2.57694C10.3554 2.16061 11.1842 1.95001 12.0899 1.95001C16.5701 1.95001 22.6589 7.22086 27.2434 15.0657C31.1541 21.7552 32.9569 28.7762 31.8395 32.9521C31.4125 34.5443 30.5594 35.7435 29.3728 36.4211C28.6445 36.8365 27.8147 37.0471 26.909 37.0471ZM12.0899 4.87501C11.6931 4.87501 11.3616 4.95496 11.0759 5.11681C10.5738 5.40346 10.2238 5.97579 9.98393 6.80551C9.07913 9.93331 10.2579 15.5795 14.2778 22.4591C18.7053 30.0339 24.0893 34.1221 26.908 34.1221C27.3058 34.1221 27.6373 34.0421 27.923 33.8793C28.4241 33.5946 28.7839 33.0252 29.013 32.1945C29.8583 29.1272 28.739 23.4195 24.7181 16.5409C20.2907 8.96416 14.9077 4.87501 12.0899 4.87501Z" fill="#4E7AB5"/>
<path id="Vector_4" d="M22.9124 19.5C22.9124 21.3866 21.3865 22.9125 19.4999 22.9125C17.6133 22.9125 16.0874 21.3866 16.0874 19.5C16.0874 17.6134 17.6133 16.0875 19.4999 16.0875C21.3865 16.0875 22.9124 17.6134 22.9124 19.5Z" fill="#8BB7F0"/>
<path id="Vector_5" d="M19.5001 23.4C17.3492 23.4 15.6001 21.6508 15.6001 19.5C15.6001 17.3491 17.3492 15.6 19.5001 15.6C21.6509 15.6 23.4001 17.3491 23.4001 19.5C23.4001 21.6508 21.6509 23.4 19.5001 23.4ZM19.5001 16.575C17.8874 16.575 16.5751 17.8873 16.5751 19.5C16.5751 21.1126 17.8874 22.425 19.5001 22.425C21.1127 22.425 22.4251 21.1126 22.4251 19.5C22.4251 17.8873 21.1127 16.575 19.5001 16.575Z" fill="#4E7AB5"/>
<path id="Vector_6" d="M19.5001 27.3663C9.11245 27.3663 0.975098 23.9109 0.975098 19.5C0.975098 15.0891 9.11245 11.6337 19.5001 11.6337C29.8878 11.6337 38.0251 15.0891 38.0251 19.5C38.0251 23.9109 29.8878 27.3663 19.5001 27.3663ZM19.5001 12.6087C9.98702 12.6087 1.9501 15.7648 1.9501 19.5C1.9501 23.2353 9.98702 26.3913 19.5001 26.3913C29.0132 26.3913 37.0501 23.2362 37.0501 19.5C37.0501 15.7638 29.0132 12.6087 19.5001 12.6087Z" fill="#8BB7F0"/>
<path id="Vector_7" d="M12.092 36.075C11.3559 36.075 10.6899 35.9073 10.1098 35.5768C9.13871 35.022 8.46304 34.0538 8.09936 32.6986C7.04539 28.7625 8.81013 22.034 12.5941 15.5571C16.9446 8.12174 22.8306 2.92792 26.9091 2.92792C27.6442 2.92792 28.3111 3.09562 28.8903 3.42614C29.8604 3.97994 30.5361 4.94714 30.8997 6.30044C31.9537 10.2365 30.189 16.965 26.403 23.4429C22.0555 30.8802 16.1714 36.075 12.092 36.075ZM26.9091 3.90292C23.2197 3.90292 17.5539 9.01094 13.4375 16.0495C9.83486 22.2163 8.06816 28.8054 9.04218 32.447C9.33566 33.5419 9.85729 34.3093 10.5944 34.7305C11.0244 34.9752 11.5275 35.1 12.091 35.1C15.7814 35.1 21.4461 29.991 25.5597 22.9505C29.1642 16.7827 30.9319 10.1926 29.9559 6.55297C29.6634 5.45999 29.1418 4.69267 28.4057 4.27342C27.9757 4.02772 27.4726 3.90292 26.9091 3.90292Z" fill="#8BB7F0"/>
<g id="Group">
<path id="Vector_8" d="M26.9089 36.0721C22.8266 36.0711 16.9405 30.8782 12.5949 23.4429C8.80998 16.966 7.0462 10.2375 8.10018 6.30141C8.46288 4.94616 9.13855 3.97799 10.1106 3.42321C10.6898 3.09269 11.3557 2.92499 12.0899 2.92499C16.1703 2.92499 22.0554 8.11979 26.4019 15.5571C30.1878 22.033 31.9516 28.7615 30.8967 32.6995C30.5349 34.0538 29.8593 35.021 28.8891 35.5738C28.31 35.9044 27.6441 36.0721 26.9089 36.0721ZM12.0899 3.89999C11.5273 3.89999 11.0232 4.02479 10.5933 4.26951C9.85615 4.69071 9.33453 5.45804 9.04105 6.55296C8.06703 10.1936 9.83373 16.7836 13.4364 22.9505C17.5499 29.9881 23.2166 35.0961 26.9089 35.0971C27.4725 35.0971 27.9765 34.9723 28.4065 34.7266C29.1417 34.3073 29.6633 33.54 29.9558 32.447C30.9308 28.8054 29.1641 22.2154 25.5605 16.0495C21.446 9.00996 15.7822 3.89999 12.0899 3.89999Z" fill="#8BB7F0"/>
</g>
</g>
</svg>
