<svg width="46" height="46" viewBox="0 0 46 46" fill="none" xmlns="http://www.w3.org/2000/svg">
<g id="javascript 1">
<path id="Vector" d="M5.75 40.25V5.75H40.25V40.25H5.75Z" fill="#FFD600"/>
<path id="Vector_2" d="M28.3072 31.5742C28.9704 32.6514 29.691 33.6835 31.2177 33.6835C32.4999 33.6835 33.1727 33.0462 33.1727 32.1645C33.1727 31.1094 32.4769 30.7347 31.0663 30.1204L30.2929 29.7907C28.0609 28.8439 26.5765 27.6575 26.5765 25.1514C26.5765 22.8419 28.3446 21.0843 31.1075 21.0843C33.0749 21.0843 34.4885 21.7656 35.5081 23.5501L33.0989 25.0901C32.5689 24.1433 31.9958 23.7705 31.1075 23.7705C30.2009 23.7705 29.6268 24.3426 29.6268 25.0901C29.6268 26.0139 30.2018 26.3877 31.5291 26.9598L32.3025 27.2895C34.9331 28.4098 36.4166 29.554 36.4166 32.1262C36.4166 34.8977 34.2278 36.4166 31.2896 36.4166C28.4155 36.4166 26.7835 34.9744 25.875 33.189L28.3072 31.5742ZM17.204 31.6528C17.6889 32.521 18.4258 33.189 19.4858 33.189C20.4997 33.189 21.0833 32.7884 21.0833 31.2311V21.0833H24.2774V31.7218C24.2774 34.9485 22.4058 36.4166 19.6726 36.4166C17.203 36.4166 15.4205 34.7434 14.6941 33.189L17.204 31.6528Z" fill="#000001"/>
</g>
</svg>
