<svg width="28" height="27" viewBox="0 0 28 27" fill="none" xmlns="http://www.w3.org/2000/svg">
<g id="linkedin">
<path id="Vector" d="M22.9602 2.15991H5.04023C3.49463 2.15991 2.24023 3.36951 2.24023 4.85991V22.1399C2.24023 23.6303 3.49463 24.8399 5.04023 24.8399H22.9602C24.5058 24.8399 25.7602 23.6303 25.7602 22.1399V4.85991C25.7602 3.36951 24.5058 2.15991 22.9602 2.15991ZM9.52023 10.7999V21.0599H6.16023V10.7999H9.52023ZM6.16023 7.81371C6.16023 7.05771 6.83223 6.47991 7.84023 6.47991C8.84823 6.47991 9.48103 7.05771 9.52023 7.81371C9.52023 8.56971 8.89303 9.17991 7.84023 9.17991C6.83223 9.17991 6.16023 8.56971 6.16023 7.81371ZM21.8402 21.0599H18.4802C18.4802 21.0599 18.4802 16.0595 18.4802 15.6599C18.4802 14.5799 17.9202 13.4999 16.5202 13.4783H16.4754C15.1202 13.4783 14.5602 14.5907 14.5602 15.6599C14.5602 16.1513 14.5602 21.0599 14.5602 21.0599H11.2002V10.7999H14.5602V12.1823C14.5602 12.1823 15.641 10.7999 17.8138 10.7999C20.037 10.7999 21.8402 12.2741 21.8402 15.2603V21.0599Z" fill="white"/>
</g>
</svg>
