<svg width="241" height="241" viewBox="0 0 241 241" fill="none" xmlns="http://www.w3.org/2000/svg">
<g clip-path="url(#clip0_61_1200)">
<path d="M37.4721 147.076C37.4097 146.911 37.4223 146.752 37.5099 146.6C37.5974 146.447 37.7291 146.354 37.905 146.322L45.3419 145.019C45.5356 144.989 45.7192 145.022 45.8928 145.119C46.0663 145.216 46.1885 145.358 46.2593 145.545L46.7523 146.846C46.8203 147.026 46.8199 147.206 46.7512 147.386C46.6825 147.566 46.5626 147.701 46.3916 147.791L41.3086 150.396C41.3011 150.399 41.2988 150.404 41.3017 150.412C41.3045 150.419 41.3096 150.422 41.3171 150.419L46.8505 149.003C47.0386 148.958 47.218 148.98 47.3887 149.069C47.5594 149.158 47.6787 149.293 47.7467 149.472L48.2397 150.774C48.3105 150.961 48.3144 151.152 48.2513 151.347C48.1855 151.535 48.0684 151.677 47.9002 151.775L41.4663 155.726C41.3158 155.826 41.1572 155.847 40.9903 155.791C40.8207 155.727 40.7046 155.612 40.6423 155.448L40.2683 154.46C40.2004 154.28 40.2007 154.101 40.2694 153.921C40.3381 153.741 40.458 153.605 40.6291 153.515L45.712 150.91C45.7195 150.907 45.7218 150.902 45.719 150.895C45.7161 150.887 45.711 150.885 45.7035 150.888L40.2084 152.404C40.0231 152.457 39.8452 152.439 39.6745 152.35C39.5038 152.26 39.3844 152.126 39.3164 151.946L38.781 150.532C38.713 150.353 38.7133 150.173 38.782 149.993C38.8507 149.813 38.972 149.681 39.1459 149.598L44.2671 147.095C44.2746 147.092 44.2769 147.087 44.2741 147.079C44.2712 147.072 44.2661 147.069 44.2586 147.072L38.7252 148.487C38.5372 148.533 38.3578 148.511 38.1871 148.422C38.0164 148.332 37.897 148.198 37.829 148.018L37.4721 147.076Z" fill="black"/>
<path d="M35.3006 138.571C35.2576 138.392 35.2863 138.22 35.3868 138.056C35.4872 137.892 35.6269 137.789 35.8058 137.746L36.3425 137.617C36.5214 137.574 36.6928 137.602 36.8569 137.703C37.0209 137.803 37.1244 137.943 37.1674 138.122L37.7678 140.619C37.7846 140.689 37.8242 140.716 37.8864 140.701L39.0881 140.412C39.1582 140.395 39.1847 140.352 39.1679 140.282L38.6236 138.018C38.5806 137.84 38.6093 137.668 38.7098 137.504C38.8102 137.34 38.9499 137.236 39.1288 137.193L39.5488 137.092C39.7277 137.049 39.8991 137.078 40.0632 137.179C40.2272 137.279 40.3307 137.419 40.3737 137.598L40.918 139.861C40.9349 139.931 40.9744 139.959 41.0366 139.944L42.4717 139.599C42.5417 139.582 42.5683 139.538 42.5515 139.468L41.9511 136.971C41.9081 136.793 41.9368 136.621 42.0372 136.457C42.1376 136.293 42.2773 136.19 42.4562 136.147L42.9929 136.017C43.1718 135.974 43.3433 136.003 43.5073 136.104C43.6713 136.204 43.7748 136.344 43.8179 136.523L44.8447 140.793C44.8877 140.972 44.859 141.143 44.7586 141.307C44.6581 141.471 44.5185 141.575 44.3396 141.618L37.1524 143.346C36.9735 143.389 36.8021 143.36 36.638 143.26C36.474 143.159 36.3705 143.02 36.3275 142.841L35.3006 138.571Z" fill="black"/>
<path d="M41.1891 130.978C41.1261 130.503 40.9932 130.169 40.7903 129.978C40.5865 129.779 40.3021 129.704 39.9373 129.752C39.3425 129.831 39.1028 130.306 39.2183 131.179L39.2829 131.667C39.2923 131.738 39.3327 131.769 39.4041 131.759L41.0934 131.536C41.1648 131.526 41.2042 131.489 41.2116 131.423C41.2165 131.277 41.209 131.129 41.1891 130.978ZM36.0732 132.2L37.5245 132.008C37.5959 131.999 37.6269 131.958 37.6174 131.887L37.5843 131.637C37.4636 130.725 37.1058 130.309 36.511 130.387C35.9559 130.461 35.7308 130.894 35.8358 131.687C35.8557 131.838 35.887 131.983 35.9297 132.123C35.954 132.184 36.0018 132.21 36.0732 132.2ZM38.0801 129.804C38.0786 129.183 38.248 128.664 38.5883 128.248C38.9286 127.832 39.3605 127.589 39.8839 127.52C40.7801 127.401 41.4812 127.607 41.9871 128.137C42.4841 128.66 42.8181 129.568 42.9892 130.861C43.0764 131.519 43.1355 132.21 43.1665 132.932C43.1758 133.124 43.1181 133.297 42.9931 133.451C42.8593 133.598 42.6932 133.684 42.4949 133.711L35.2858 134.665C35.0955 134.69 34.9165 134.649 34.7491 134.542C34.5816 134.435 34.4773 134.288 34.4363 134.1C34.2836 133.434 34.1658 132.788 34.0828 132.161C33.7679 129.782 34.3638 128.493 35.8707 128.293C36.3783 128.226 36.832 128.331 37.2319 128.609C37.6229 128.88 37.8977 129.28 38.0563 129.807C38.0573 129.815 38.0618 129.819 38.0698 129.818C38.0777 129.817 38.0811 129.812 38.0801 129.804Z" fill="black"/>
<path d="M40.4483 118.453C40.469 117.773 40.2687 117.259 39.8471 116.91C39.4258 116.553 38.7274 116.359 37.7519 116.329C36.8723 116.303 36.2273 116.455 35.817 116.787C35.4069 117.11 35.1915 117.612 35.1708 118.292C35.1661 118.444 35.1736 118.592 35.1932 118.736C35.2072 118.801 35.2462 118.834 35.3102 118.836L40.2639 118.987C40.3359 118.99 40.3808 118.959 40.3988 118.895C40.4271 118.752 40.4437 118.605 40.4483 118.453ZM33.3043 118.475C33.3483 117.035 33.7703 115.928 34.5703 115.152C35.3624 114.376 36.4461 114.009 37.8215 114.051C39.3168 114.096 40.4479 114.535 41.2149 115.367C41.9821 116.191 42.3438 117.318 42.3001 118.749C42.2808 119.381 42.2288 120.036 42.1441 120.714C42.1222 120.905 42.0334 121.062 41.8775 121.186C41.7217 121.309 41.5478 121.368 41.3559 121.362L34.0873 121.14C33.8954 121.134 33.7254 121.065 33.5774 120.932C33.4294 120.8 33.3503 120.637 33.3402 120.445C33.297 119.763 33.285 119.106 33.3043 118.475Z" fill="black"/>
<path d="M34.5835 106.033C34.6094 105.851 34.6992 105.702 34.853 105.586C35.0068 105.471 35.1748 105.426 35.357 105.452L35.9035 105.529C36.0856 105.555 36.2345 105.645 36.35 105.799C36.4655 105.953 36.5103 106.121 36.4844 106.303L36.123 108.845C36.1129 108.917 36.1395 108.957 36.2029 108.966L37.4266 109.14C37.4979 109.15 37.5386 109.119 37.5487 109.048L37.8763 106.743C37.9022 106.561 37.992 106.412 38.1458 106.297C38.2996 106.181 38.4676 106.136 38.6498 106.162L39.0775 106.223C39.2596 106.249 39.4085 106.339 39.524 106.492C39.6395 106.646 39.6843 106.814 39.6584 106.996L39.3308 109.301C39.3207 109.373 39.3473 109.413 39.4107 109.422L40.872 109.629C40.9433 109.64 40.984 109.609 40.9941 109.538L41.3555 106.995C41.3813 106.813 41.4712 106.664 41.625 106.549C41.7788 106.433 41.9467 106.388 42.1289 106.414L42.6754 106.492C42.8576 106.518 43.0064 106.608 43.1219 106.761C43.2374 106.915 43.2822 107.083 43.2564 107.265L42.6383 111.614C42.6124 111.796 42.5226 111.945 42.3688 112.06C42.215 112.176 42.047 112.221 41.8649 112.195L34.5464 111.154C34.3643 111.129 34.2154 111.039 34.0999 110.885C33.9844 110.731 33.9396 110.563 33.9655 110.381L34.5835 106.033Z" fill="black"/>
<path d="M36.882 95.9259C36.9232 95.763 37.0215 95.6517 37.1769 95.592C37.3342 95.5246 37.4846 95.5337 37.6279 95.6195L44.2869 99.7305C44.4574 99.8397 44.5802 99.9904 44.6553 100.183C44.7324 100.367 44.7464 100.556 44.6973 100.75L44.4147 101.867C44.3637 102.069 44.2594 102.236 44.1019 102.37C43.9463 102.495 43.7686 102.562 43.5687 102.569L35.7558 103.018C35.5889 103.026 35.4513 102.966 35.343 102.84C35.2367 102.705 35.2042 102.557 35.2454 102.394L35.5338 101.254C35.5829 101.06 35.6881 100.905 35.8495 100.789C36.0051 100.664 36.1808 100.605 36.3768 100.613L42.3252 100.781C42.333 100.783 42.3388 100.777 42.3427 100.761C42.3447 100.753 42.3418 100.749 42.3341 100.747L37.0391 97.9957C36.8647 97.902 36.738 97.7668 36.659 97.59C36.5741 97.4035 36.5562 97.2133 36.6053 97.0194L36.882 95.9259Z" fill="black"/>
<path d="M39.6163 88.181C39.6803 88.0085 39.7997 87.8821 39.9745 87.8019C40.1493 87.7216 40.3229 87.7135 40.4955 87.7775L41.013 87.9695C41.1855 88.0335 41.3119 88.1529 41.3921 88.3277C41.4723 88.5025 41.4804 88.6761 41.4165 88.8486L40.5235 91.2564C40.4984 91.3239 40.5159 91.3688 40.5759 91.391L41.7348 91.8208C41.8023 91.8459 41.8485 91.8246 41.8736 91.7571L42.6831 89.5744C42.7471 89.4019 42.8665 89.2755 43.0413 89.1953C43.2161 89.1151 43.3898 89.107 43.5623 89.171L43.9673 89.3212C44.1399 89.3852 44.2662 89.5046 44.3464 89.6794C44.4267 89.8542 44.4348 90.0278 44.3708 90.2003L43.5612 92.3831C43.5362 92.4506 43.5537 92.4954 43.6137 92.5177L44.9976 93.031C45.0651 93.056 45.1114 93.0348 45.1364 92.9673L46.0294 90.5595C46.0934 90.387 46.2128 90.2607 46.3876 90.1804C46.5624 90.1002 46.736 90.0921 46.9086 90.1561L47.4261 90.348C47.5986 90.412 47.725 90.5314 47.8052 90.7062C47.8854 90.881 47.8936 91.0547 47.8296 91.2272L46.3023 95.3451C46.2383 95.5176 46.1189 95.644 45.9441 95.7242C45.7693 95.8044 45.5956 95.8125 45.4231 95.7486L38.4924 93.178C38.3199 93.114 38.1936 92.9947 38.1133 92.8198C38.0331 92.645 38.025 92.4714 38.089 92.2989L39.6163 88.181Z" fill="black"/>
<path d="M49.537 82.8325C49.6181 82.6674 49.7497 82.5538 49.9317 82.4917C50.1137 82.4295 50.2873 82.439 50.4525 82.5202L51.0018 82.79C51.1669 82.8711 51.2806 83.0027 51.3427 83.1847C51.4048 83.3667 51.3953 83.5403 51.3142 83.7055L49.2721 87.863C49.1909 88.0282 49.0594 88.1418 48.8773 88.2039C48.6953 88.266 48.5217 88.2565 48.3566 88.1754L41.7217 84.9165C41.5566 84.8354 41.4429 84.7038 41.3808 84.5218C41.3187 84.3398 41.3282 84.1662 41.4093 84.001L41.8908 83.0209C41.9719 82.8557 42.1035 82.7421 42.2855 82.68C42.4675 82.6179 42.6411 82.6274 42.8063 82.7085L48.1809 85.3484C48.2455 85.3801 48.2937 85.3637 48.3255 85.2991L49.537 82.8325Z" fill="black"/>
<path d="M49.6467 77.8041C51.0683 78.6994 52.0882 78.6562 52.7063 77.6746C53.3244 76.693 52.9227 75.7546 51.5011 74.8594C50.0794 73.9642 49.0596 74.0073 48.4415 74.9889C47.8233 75.9705 48.2251 76.9089 49.6467 77.8041ZM46.1445 77.1728C45.8682 76.1102 46.0754 75.0305 46.766 73.9339C47.4566 72.8372 48.3407 72.1838 49.4184 71.9738C50.4961 71.7637 51.6272 72.0317 52.8119 72.7777C53.9966 73.5237 54.7271 74.4281 55.0033 75.4907C55.2795 76.5533 55.0724 77.633 54.3818 78.7297C53.6912 79.8263 52.807 80.4797 51.7294 80.6897C50.6517 80.8998 49.5205 80.6318 48.3358 79.8858C47.1512 79.1398 46.4207 78.2355 46.1445 77.1728Z" fill="black"/>
<path d="M56.0681 68.5222C56.3951 68.1179 56.5534 67.7314 56.5429 67.3628C56.5324 66.9941 56.3561 66.6715 56.014 66.3947C55.3609 65.8665 54.6948 66.0222 54.0155 66.8618C53.9199 66.98 53.8362 67.1026 53.7643 67.2297C53.7365 67.2895 53.7506 67.3421 53.8065 67.3873L55.6165 68.8514C55.6663 68.8917 55.7175 68.892 55.7702 68.8523C55.9034 68.7131 56.0027 68.603 56.0681 68.5222ZM52.4651 65.9164C54.1758 63.8017 55.793 63.3606 57.3169 64.5933C58.1441 65.2624 58.5786 66.01 58.6204 66.8361C58.6609 67.651 58.3114 68.5155 57.5718 69.4299C57.4612 69.5667 57.3141 69.7358 57.1306 69.9372C57.0853 69.9932 57.0875 70.0413 57.1373 70.0816L58.6487 71.3042C58.7918 71.4199 58.8734 71.5734 58.8936 71.7646C58.9138 71.9559 58.8661 72.1231 58.7503 72.2661L58.139 73.0218C58.0233 73.1649 57.8698 73.2465 57.6786 73.2667C57.4873 73.2869 57.3201 73.2392 57.1771 73.1235L51.4766 68.5123C51.3273 68.3916 51.2338 68.2337 51.1961 68.0386C51.1585 67.8434 51.1938 67.6662 51.3021 67.5069C51.68 66.9379 52.0677 66.4078 52.4651 65.9164Z" fill="black"/>
<path d="M60.6119 57.2214C60.7423 57.0915 60.9036 57.0268 61.0959 57.0271C61.2883 57.0275 61.4494 57.0929 61.5792 57.2232L61.9688 57.6143C62.0987 57.7446 62.1634 57.906 62.163 58.0983C62.1627 58.2906 62.0973 58.4517 61.967 58.5816L60.1476 60.394C60.0966 60.4448 60.0937 60.4929 60.1389 60.5382L61.0112 61.4139C61.062 61.4649 61.1129 61.465 61.1639 61.4142L62.8132 59.7712C62.9436 59.6413 63.1049 59.5765 63.2973 59.5769C63.4896 59.5773 63.6507 59.6426 63.7805 59.773L64.0854 60.0791C64.2153 60.2094 64.28 60.3708 64.2797 60.5631C64.2793 60.7554 64.2139 60.9165 64.0836 61.0464L62.4343 62.6894C62.3833 62.7402 62.3804 62.7883 62.4255 62.8336L63.4672 63.8793C63.518 63.9303 63.569 63.9304 63.62 63.8796L65.4393 62.0672C65.5696 61.9373 65.731 61.8726 65.9233 61.873C66.1156 61.8733 66.2767 61.9387 66.4066 62.069L66.7962 62.4601C66.926 62.5905 66.9908 62.7518 66.9904 62.9441C66.99 63.1365 66.9247 63.2976 66.7943 63.4274L63.6828 66.5271C63.5524 66.657 63.3911 66.7217 63.1988 66.7213C63.0064 66.721 62.8453 66.6556 62.7155 66.5253L57.4985 61.2884C57.3687 61.158 57.3039 60.9967 57.3043 60.8043C57.3047 60.612 57.37 60.4509 57.5004 60.321L60.6119 57.2214Z" fill="black"/>
<path d="M68.3418 55.7592C68.6602 55.504 68.8473 55.2258 68.9033 54.9247C68.9605 54.6123 68.879 54.3188 68.6589 54.0441C68.1836 53.4511 67.6026 53.4297 66.9159 53.98C66.7598 54.1051 66.6238 54.2296 66.5077 54.3533C66.4615 54.4109 66.4609 54.4677 66.506 54.5239L67.7592 56.0876C67.8043 56.1438 67.8549 56.1494 67.9111 56.1044L68.3418 55.7592ZM72.2586 55.6957L73.858 56.6744C74.0018 56.7643 74.0787 56.8923 74.0889 57.0584C74.094 57.2183 74.031 57.3508 73.9 57.4559L73.0479 58.1388C72.8855 58.2689 72.7013 58.3397 72.4952 58.3511C72.289 58.3625 72.1041 58.3108 71.9403 58.196L70.5077 57.2528C70.2639 57.0893 70.0514 57.0033 69.8703 56.9947C69.6891 56.9861 69.5111 57.0519 69.3363 57.192L68.9992 57.4621C68.943 57.5071 68.9375 57.5578 68.9825 57.6139L70.4009 59.3837C70.5159 59.5273 70.5629 59.6946 70.5419 59.8858C70.5208 60.077 70.4385 60.2301 70.2949 60.3452L69.5364 60.9531C69.3929 61.0681 69.2255 61.1151 69.0343 61.0941C68.8431 61.073 68.69 60.9907 68.5749 60.8471L63.9896 55.1258C63.8695 54.976 63.8113 54.8074 63.8149 54.62C63.8197 54.4213 63.892 54.2557 64.0318 54.1232C64.5985 53.5767 65.2159 53.0358 65.8838 52.5004C67.7566 50.9995 69.2558 50.9513 70.3815 52.3559C70.6967 52.7492 70.8677 53.2119 70.8944 53.7441C70.9273 54.2713 70.8078 54.7618 70.5359 55.2156C70.5296 55.2206 70.529 55.2262 70.534 55.2325C70.544 55.245 70.5521 55.2487 70.5584 55.2437C70.8307 55.1997 71.0912 55.2114 71.3399 55.2786C71.5948 55.3409 71.9011 55.4799 72.2586 55.6957Z" fill="black"/>
<path d="M199.441 95.8148C199.595 96.3115 199.829 96.6579 200.141 96.8542C200.453 97.0505 200.819 97.0835 201.239 96.953C202.042 96.7041 202.283 96.0639 201.963 95.0324C201.918 94.8872 201.862 94.7494 201.797 94.619C201.762 94.5626 201.711 94.5451 201.642 94.5664L199.419 95.2564C199.358 95.2754 199.329 95.3178 199.333 95.3837C199.374 95.5718 199.41 95.7155 199.441 95.8148ZM203.611 94.2697C204.417 96.8675 203.884 98.4568 202.012 99.0377C200.996 99.3531 200.133 99.2984 199.423 98.8737C198.723 98.4542 198.199 97.6829 197.851 96.5598C197.798 96.3917 197.74 96.1754 197.674 95.9109C197.653 95.8421 197.612 95.8172 197.551 95.8362L195.694 96.4123C195.518 96.4669 195.345 96.4493 195.175 96.3598C195.005 96.2702 194.893 96.1375 194.838 95.9618L194.55 95.0335C194.495 94.8577 194.513 94.6848 194.602 94.5146C194.692 94.3444 194.825 94.232 195 94.1775L202.003 92.0044C202.186 91.9475 202.37 91.9576 202.553 92.0348C202.736 92.112 202.863 92.2399 202.936 92.4186C203.198 93.049 203.423 93.6661 203.611 94.2697Z" fill="black"/>
<path d="M203.626 105.276C203.687 105.451 203.665 105.619 203.559 105.78C203.454 105.941 203.307 106.041 203.119 106.08L202.814 106.143C202.633 106.181 202.464 106.151 202.305 106.053C202.153 105.954 202.046 105.812 201.984 105.629C201.78 105.042 201.453 104.608 201.002 104.326C200.559 104.042 200.071 103.955 199.538 104.066L197.8 104.428C197.619 104.465 197.449 104.431 197.288 104.326C197.127 104.22 197.028 104.077 196.991 103.897L196.793 102.945C196.756 102.765 196.79 102.595 196.895 102.434C197 102.273 197.143 102.174 197.323 102.137L202.094 101.145C202.274 101.108 202.444 101.142 202.605 101.247C202.766 101.353 202.865 101.496 202.902 101.676L203.088 102.569C203.125 102.749 203.091 102.919 202.986 103.08C202.88 103.241 202.738 103.34 202.557 103.377L202.064 103.48C202.056 103.482 202.053 103.486 202.055 103.494C202.056 103.502 202.062 103.509 202.071 103.515C202.824 103.874 203.342 104.46 203.626 105.276Z" fill="black"/>
<path d="M204.372 110.052C204.396 110.234 204.349 110.402 204.232 110.554C204.115 110.707 203.965 110.795 203.783 110.819L198.953 111.454C198.77 111.478 198.603 111.432 198.45 111.315C198.297 111.197 198.209 111.048 198.185 110.865L198.051 109.842C198.027 109.66 198.073 109.492 198.19 109.34C198.307 109.187 198.457 109.099 198.64 109.075L203.47 108.44C203.652 108.416 203.82 108.462 203.973 108.579C204.125 108.696 204.213 108.846 204.237 109.029L204.372 110.052ZM207.108 109.692C207.132 109.874 207.086 110.042 206.969 110.194C206.852 110.347 206.702 110.435 206.519 110.459L206.21 110.5C206.028 110.524 205.86 110.477 205.708 110.36C205.555 110.243 205.467 110.093 205.443 109.911L205.308 108.888C205.284 108.705 205.331 108.538 205.448 108.385C205.565 108.233 205.715 108.144 205.897 108.12L206.207 108.08C206.389 108.056 206.556 108.102 206.709 108.219C206.862 108.337 206.95 108.486 206.974 108.669L207.108 109.692Z" fill="black"/>
<path d="M204.113 115.788C204.736 116.255 205.065 116.852 205.099 117.579C205.134 118.306 204.951 118.836 204.55 119.167C204.15 119.506 203.446 119.7 202.439 119.748L199.526 119.886C199.343 119.895 199.18 119.835 199.037 119.705C198.895 119.576 198.819 119.419 198.811 119.235L198.77 118.384C198.761 118.201 198.822 118.038 198.951 117.895C199.081 117.753 199.237 117.677 199.421 117.669L202.334 117.53C202.701 117.513 202.951 117.449 203.081 117.339C203.212 117.228 203.271 117.037 203.258 116.766C203.248 116.542 203.15 116.338 202.965 116.155C202.781 115.979 202.584 115.897 202.377 115.906L199.344 116.051C199.16 116.059 198.997 115.999 198.855 115.87C198.713 115.74 198.637 115.584 198.628 115.4L198.585 114.489C198.576 114.305 198.637 114.142 198.766 114C198.895 113.857 199.052 113.782 199.236 113.773L204.102 113.542C204.286 113.533 204.449 113.593 204.592 113.723C204.734 113.852 204.809 114.009 204.818 114.193L204.857 115.008C204.866 115.199 204.806 115.366 204.676 115.509C204.555 115.651 204.399 115.73 204.207 115.747L204.111 115.752C204.103 115.752 204.099 115.756 204.1 115.764C204.101 115.78 204.105 115.788 204.113 115.788Z" fill="black"/>
<path d="M200.228 126.378C200.251 126.556 200.207 126.71 200.097 126.84C199.986 126.971 199.843 127.032 199.667 127.023L199.355 127.007C199.156 126.997 198.983 126.924 198.838 126.789C198.692 126.661 198.608 126.497 198.586 126.296C198.535 125.732 198.519 125.255 198.538 124.863C198.592 123.801 198.905 122.999 199.477 122.46C200.049 121.92 200.87 121.677 201.941 121.731C202.987 121.784 203.773 122.096 204.296 122.667C204.828 123.246 205.068 124.047 205.016 125.07C204.996 125.462 204.933 125.935 204.824 126.49C204.782 126.688 204.682 126.844 204.525 126.956C204.366 127.076 204.187 127.131 203.988 127.121L203.676 127.105C203.5 127.096 203.364 127.021 203.267 126.88C203.17 126.739 203.142 126.582 203.182 126.407C203.255 126.083 203.3 125.748 203.317 125.405C203.338 124.997 203.229 124.688 202.992 124.475C202.754 124.271 202.363 124.155 201.82 124.128C201.268 124.1 200.864 124.184 200.605 124.379C200.355 124.583 200.218 124.912 200.195 125.368C200.178 125.711 200.189 126.048 200.228 126.378Z" fill="black"/>
<path d="M201.526 133.102C201.515 133.173 201.546 133.214 201.617 133.224C201.982 133.269 202.255 133.228 202.435 133.101C202.614 132.981 202.725 132.775 202.768 132.482C202.812 132.173 202.767 131.928 202.632 131.747C202.503 131.575 202.252 131.441 201.878 131.346C201.814 131.337 201.778 131.364 201.769 131.427L201.526 133.102ZM204.261 132.638C203.968 134.649 202.761 135.505 200.638 135.204C200.448 135.176 200.296 135.082 200.182 134.92C200.076 134.759 200.038 134.579 200.066 134.381L200.519 131.27C200.529 131.199 200.497 131.166 200.424 131.171C200.081 131.194 199.825 131.315 199.656 131.533C199.486 131.758 199.363 132.129 199.288 132.643C199.241 132.968 199.231 133.371 199.258 133.852C199.274 134.024 199.216 134.169 199.086 134.287C198.963 134.407 198.815 134.454 198.641 134.429L198.451 134.401C198.253 134.372 198.08 134.283 197.932 134.132C197.791 133.99 197.718 133.822 197.714 133.627C197.69 133.13 197.717 132.609 197.796 132.063C197.96 130.938 198.359 130.111 198.994 129.581C199.635 129.06 200.475 128.875 201.512 129.025C202.541 129.175 203.293 129.559 203.769 130.178C204.245 130.797 204.409 131.617 204.261 132.638Z" fill="black"/>
<path d="M199.169 138.939C199.128 139.119 199.026 139.26 198.863 139.362C198.701 139.464 198.529 139.495 198.35 139.454L197.227 139.199C197.047 139.158 196.906 139.056 196.804 138.893C196.702 138.731 196.671 138.559 196.712 138.38L196.994 137.14C197.035 136.96 197.136 136.819 197.299 136.717C197.462 136.615 197.633 136.584 197.812 136.625L198.936 136.88C199.115 136.921 199.256 137.023 199.359 137.186C199.461 137.348 199.492 137.519 199.451 137.699L199.169 138.939Z" fill="black"/>
<path d="M197.215 145.621L198.473 146.021C198.694 146.092 198.924 146.056 199.162 145.913C199.398 145.779 199.557 145.582 199.64 145.322C199.846 144.674 199.454 144.193 198.463 143.877C197.967 143.72 197.566 143.689 197.258 143.784C196.958 143.882 196.761 144.079 196.667 144.376C196.584 144.636 196.6 144.888 196.715 145.135C196.827 145.389 196.994 145.551 197.215 145.621ZM202.982 149.068C202.926 149.243 202.812 149.375 202.642 149.463C202.471 149.552 202.298 149.568 202.122 149.512L194.85 147.198C194.674 147.142 194.542 147.029 194.454 146.858C194.366 146.688 194.349 146.514 194.405 146.339L194.634 145.619C194.693 145.436 194.803 145.299 194.967 145.208C195.137 145.12 195.315 145.101 195.501 145.151L195.592 145.18C195.6 145.183 195.605 145.18 195.607 145.173C195.61 145.165 195.608 145.156 195.603 145.146C195.179 144.499 195.085 143.806 195.32 143.067C195.531 142.403 195.977 141.941 196.656 141.678C197.333 141.424 198.16 141.451 199.136 141.762C200.134 142.08 200.831 142.528 201.226 143.107C201.629 143.688 201.719 144.33 201.495 145.031C201.301 145.641 200.898 146.13 200.286 146.498C200.276 146.503 200.27 146.509 200.267 146.517C200.265 146.524 200.267 146.529 200.275 146.532L202.814 147.34C202.989 147.395 203.121 147.509 203.209 147.679C203.298 147.85 203.314 148.023 203.258 148.199L202.982 149.068Z" fill="black"/>
<path d="M195.396 153.842C195.368 153.908 195.386 153.956 195.452 153.984C195.793 154.123 196.067 154.155 196.275 154.079C196.479 154.01 196.639 153.84 196.757 153.568C196.881 153.282 196.901 153.034 196.818 152.823C196.739 152.623 196.531 152.429 196.195 152.24C196.136 152.214 196.094 152.231 196.068 152.29L195.396 153.842ZM198.157 154.109C197.35 155.974 195.961 156.484 193.99 155.64C193.814 155.563 193.692 155.432 193.625 155.246C193.564 155.063 193.574 154.88 193.653 154.696L194.903 151.811C194.931 151.745 194.909 151.705 194.837 151.691C194.5 151.624 194.221 151.673 194.001 151.839C193.778 152.013 193.563 152.338 193.356 152.815C193.226 153.116 193.111 153.503 193.012 153.974C192.982 154.144 192.888 154.269 192.731 154.349C192.582 154.433 192.426 154.44 192.265 154.37L192.089 154.293C191.905 154.214 191.762 154.082 191.658 153.898C191.559 153.724 191.533 153.543 191.58 153.354C191.686 152.868 191.848 152.372 192.068 151.865C192.519 150.823 193.12 150.128 193.872 149.782C194.627 149.447 195.486 149.487 196.447 149.904C197.402 150.317 198.028 150.884 198.326 151.606C198.624 152.328 198.567 153.162 198.157 154.109Z" fill="black"/>
<path d="M193.261 163.554C193.181 163.701 193.056 163.788 192.886 163.814C192.717 163.84 192.574 163.793 192.457 163.674L188.828 160.006C188.69 159.858 188.607 159.685 188.579 159.487C188.55 159.289 188.584 159.102 188.68 158.927L189.464 157.495C189.564 157.313 189.704 157.18 189.887 157.097C190.069 157.014 190.257 156.995 190.453 157.038L195.498 158.116C195.662 158.151 195.778 158.247 195.847 158.403C195.917 158.56 195.911 158.712 195.831 158.859L195.324 159.785C195.231 159.954 195.093 160.074 194.907 160.146C194.718 160.225 194.53 160.236 194.342 160.179L190.235 158.861C190.228 158.857 190.222 158.859 190.218 158.866C190.215 158.873 190.216 158.878 190.223 158.882L193.547 161.631C193.7 161.751 193.797 161.909 193.836 162.104C193.871 162.306 193.841 162.494 193.745 162.67L193.261 163.554Z" fill="black"/>
</g>
<defs>
<clipPath id="clip0_61_1200">
<rect width="181.21" height="181.21" fill="white" transform="translate(0.527832 165.541) rotate(-65.5906)"/>
</clipPath>
</defs>
</svg>
